<svg xmlns="http://www.w3.org/2000/svg" viewBox="0 0 64 64"><g id="HOUSE-34" data-name="HOUSE"><path d="M25.21,17V31H48L28.09,7.49,20.27,16h4A1,1,0,0,1,25.21,17Z" id="id_101" style="fill: rgb(38, 180, 81);"></path><rect x="12.61" y="24" width="6.79" height="18" id="id_102" style="fill: rgb(38, 180, 81);"></rect><path d="M59.75,51V49.81a3.6,3.6,0,0,0,2.86-3.52c0-.1-.84-10-3.61-10s-3.61,9.94-3.61,10a3.6,3.6,0,0,0,2.86,3.52V51H48.48V33H34.91V51H33V33H25.21V51H23.27V18H5.82V51H0v2H64V51ZM21.33,51H19.39V44H12.61v7H10.67V23a1,1,0,0,1,1-1h8.72a1,1,0,0,1,1,1Z" id="id_103" style="fill: rgb(38, 180, 81);"></path></g></svg>