<?xml version="1.0" encoding="utf-8"?>
<!-- Generator: Adobe Illustrator 27.0.0, SVG Export Plug-In . SVG Version: 6.00 Build 0)  -->
<svg version="1.1" id="Слой_1" xmlns="http://www.w3.org/2000/svg" xmlns:xlink="http://www.w3.org/1999/xlink" x="0px" y="0px"
	 viewBox="0 0 512 512" style="enable-background:new 0 0 512 512;" xml:space="preserve">
<style type="text/css">
	.st0{fill:#26B451;}
</style>
<g id="_x32_47_x2C__Phone_x2C__Telephone_x2C__Call">
	<path id="id_101" class="st0" d="M329.1,289.7c-2.8-2.8-6.6-4.3-10.7-4.3c-4.4,0-8.5,1.7-11.6,4.9l-10.3,10.3
		c-3.3,3.3-7.6,5.1-12.3,5.1c-3.1,0-6.1-0.8-8.7-2.4c-11.3-6.6-24.6-15.1-38-28.4c-12.2-12.3-19.9-23.6-28.3-38
		c-4-6.8-2.9-15.5,2.7-21.1l10.3-10.3c6.3-6.3,6.5-16.3,0.5-22.3l-35.9-35.9c-2.8-2.8-6.6-4.4-10.7-4.4c-4.4,0-8.5,1.7-11.6,4.9
		c-11.4,11.5-19,20.3-21.1,38.3c-4.6,38.4,13.1,73.6,61.2,121.7c57,57,104.5,61.3,117.8,61.3c0,0,0,0,0,0c2.4,0,3.7-0.1,4-0.1
		c17.3-2.1,25.3-8.2,38.4-21c6.2-6.3,6.5-16.3,0.5-22.3L329.1,289.7z"/>
</g>
<g id="Layer_1">
</g>
</svg>
