<svg id="Layer_1" data-name="Layer 1" xmlns="http://www.w3.org/2000/svg" viewBox="0 0 200.63773 79.75"><title>Sonata</title><path d="M201.9821,49.44142H43.76335a.75.75,0,0,1,0-1.5H201.9821a.75.75,0,0,1,0,1.5Z" transform="translate(-2.77897 -1.50001)" fill="#231f20"/><path d="M185.2194,81.25H167.08854a.75046.75046,0,0,1-.68457-.44336l-9.208-20.53906H140.88737l-9.37793,20.54394a.75118.75118,0,0,1-.68262.43848H112.696a.74954.74954,0,0,1-.68261-.43848l-9.37842-20.54394H88.54655L79.16813,80.81153A.75048.75048,0,0,1,78.486,81.25H59.67106a.74894.74894,0,0,1-.69043-.457L50.28,60.26759H43.25016a.7502.7502,0,0,1-.75-.75V24.33351a.75019.75019,0,0,1,.75-.75H202.66667a.7494.7494,0,0,1,.75.75732l-.3418,35.18359a.75.75,0,0,1-.75.74317h-7.04395L185.902,80.81153A.74954.74954,0,0,1,185.2194,81.25Zm-17.64551-1.5H184.737l9.37891-20.544a.75117.75117,0,0,1,.68261-.43847h6.78321l.32812-33.68408H44.00016V58.76759h6.77637a.74894.74894,0,0,1,.69043.457L60.16764,79.75H78.00407l9.37842-20.544a.75047.75047,0,0,1,.68213-.43847h15.05224a.751.751,0,0,1,.68213.43847l9.3794,20.544h17.166l9.37793-20.544a.75117.75117,0,0,1,.68262-.43847h17.27637a.75047.75047,0,0,1,.68457.44336Z" transform="translate(-2.77897 -1.50001)" fill="#231f20"/><path d="M109.09928,14.93263h-1.18164V9.2212l-1.74316.59424V8.81935l2.77344-1.02051h.15136Z" transform="translate(-2.77897 -1.50001)" fill="#ec1c24"/><path d="M116.05241,11.93946a3.87468,3.87468,0,0,1-.57422,2.312,2.025,2.025,0,0,1-1.74512.77881,2.05088,2.05088,0,0,1-1.73535-.75927,3.70872,3.70872,0,0,1-.59863-2.24854V10.792a3.82429,3.82429,0,0,1,.57324-2.2998,2.39274,2.39274,0,0,1,3.49219-.01953,3.70723,3.70723,0,0,1,.58789,2.23632Zm-1.18652-1.32812a3.00432,3.00432,0,0,0-.27344-1.46729,1.04508,1.04508,0,0,0-1.72363-.02441,2.776,2.776,0,0,0-.28809,1.37939v1.61133a3.08633,3.08633,0,0,0,.27832,1.48438.93425.93425,0,0,0,.874.48828.91847.91847,0,0,0,.84473-.45166,2.90047,2.90047,0,0,0,.28809-1.41358Z" transform="translate(-2.77897 -1.50001)" fill="#ec1c24"/><path d="M122.20182,11.93946a3.87461,3.87461,0,0,1-.57422,2.312,2.025,2.025,0,0,1-1.74511.77881,2.05087,2.05087,0,0,1-1.73535-.75927,3.70878,3.70878,0,0,1-.59864-2.24854V10.792a3.82436,3.82436,0,0,1,.57324-2.2998,2.39274,2.39274,0,0,1,3.49219-.01953,3.7071,3.7071,0,0,1,.58789,2.23632Zm-1.18652-1.32812a3.00432,3.00432,0,0,0-.27344-1.46729,1.04508,1.04508,0,0,0-1.72363-.02441,2.77613,2.77613,0,0,0-.28809,1.37939v1.61133a3.08645,3.08645,0,0,0,.27832,1.48438.93426.93426,0,0,0,.874.48828.91844.91844,0,0,0,.84472-.45166,2.90047,2.90047,0,0,0,.28809-1.41358Z" transform="translate(-2.77897 -1.50001)" fill="#ec1c24"/><path d="M128.35026,11.93946a3.87468,3.87468,0,0,1-.57422,2.312,2.025,2.025,0,0,1-1.74512.77881,2.05088,2.05088,0,0,1-1.73535-.75927,3.70878,3.70878,0,0,1-.59863-2.24854V10.792a3.82436,3.82436,0,0,1,.57324-2.2998,2.39274,2.39274,0,0,1,3.49219-.01953,3.70717,3.70717,0,0,1,.58789,2.23632Zm-1.18652-1.32812a3.00432,3.00432,0,0,0-.27344-1.46729,1.04508,1.04508,0,0,0-1.72363-.02441,2.77613,2.77613,0,0,0-.28809,1.37939v1.61133a3.08633,3.08633,0,0,0,.27832,1.48438.93425.93425,0,0,0,.874.48828.91847.91847,0,0,0,.84473-.45166,2.90047,2.90047,0,0,0,.28809-1.41358Z" transform="translate(-2.77897 -1.50001)" fill="#ec1c24"/><path d="M132.24284,11.23438l.02344.38624a1.33021,1.33021,0,0,1,1.0664-.45459,1.02339,1.02339,0,0,1,1.01563.56738,1.31012,1.31012,0,0,1,1.13476-.56738,1.15208,1.15208,0,0,1,.91016.33837,1.49217,1.49217,0,0,1,.30664.998v2.43018h-.83105V12.52638a.74.74,0,0,0-.15333-.51612.67553.67553,0,0,0-.50976-.16406.69091.69091,0,0,0-.46289.15186.808.808,0,0,0-.25195.39843l.0039,2.53614h-.83008V12.499a.59316.59316,0,0,0-.667-.65283.73242.73242,0,0,0-.708.40674v2.67969h-.83007V11.23438Z" transform="translate(-2.77897 -1.50001)" fill="#ec1c24"/><path d="M138.67253,11.23438l.02343.38624a1.33025,1.33025,0,0,1,1.06641-.45459,1.02337,1.02337,0,0,1,1.01562.56738,1.31015,1.31015,0,0,1,1.13477-.56738,1.15208,1.15208,0,0,1,.91016.33837,1.49222,1.49222,0,0,1,.30664.998v2.43018h-.83106V12.52638a.74.74,0,0,0-.15332-.51612.67553.67553,0,0,0-.50976-.16406.69089.69089,0,0,0-.46289.15186.80807.80807,0,0,0-.252.39843l.00391,2.53614h-.83008V12.499a.59316.59316,0,0,0-.667-.65283.73242.73242,0,0,0-.708.40674v2.67969h-.83008V11.23438Z" transform="translate(-2.77897 -1.50001)" fill="#ec1c24"/><path d="M4.29753,51.58595h.72265a1.29469,1.29469,0,0,0,.86719-.28321,1.01112,1.01112,0,0,0,.31934-.80566A1.09855,1.09855,0,0,0,5.9401,49.709a1.06817,1.06817,0,0,0-.8125-.28125,1.12968,1.12968,0,0,0-.78613.27637.92079.92079,0,0,0-.30762.71973H2.84733a1.79972,1.79972,0,0,1,.29-.9961,1.961,1.961,0,0,1,.81055-.70019,2.64116,2.64116,0,0,1,1.165-.252,2.44787,2.44787,0,0,1,1.67285.53515,1.87815,1.87815,0,0,1,.60742,1.48633,1.51449,1.51449,0,0,1-.30469.90137,1.91573,1.91573,0,0,1-.78906.63672,1.74534,1.74534,0,0,1,.89062.62988,1.7231,1.7231,0,0,1,.30567,1.02539,1.9059,1.9059,0,0,1-.65723,1.52344,2.54622,2.54622,0,0,1-1.72558.5664,2.52774,2.52774,0,0,1-1.67969-.54687,1.7996,1.7996,0,0,1-.6543-1.45508H3.96549a.99556.99556,0,0,0,.31446.76172,1.19774,1.19774,0,0,0,.84765.293,1.23191,1.23191,0,0,0,.86914-.293,1.09782,1.09782,0,0,0,.31739-.84961,1.11009,1.11009,0,0,0-.332-.86426,1.42278,1.42278,0,0,0-.98633-.30273H4.29753Z" transform="translate(-2.77897 -1.50001)" fill="#ec1c24"/><path d="M11.91667,55.68263H10.735V49.97169l-1.74317.59375v-.99609l2.77344-1.02051h.15137Z" transform="translate(-2.77897 -1.50001)" fill="#ec1c24"/><path d="M18.84635,49.23243l-2.84179,6.4502H14.75944l2.83691-6.15723H13.9196v-.95215h4.92675Z" transform="translate(-2.77897 -1.50001)" fill="#ec1c24"/><path d="M22.64128,51.98438l.02343.38672a1.32911,1.32911,0,0,1,1.06641-.45507,1.0241,1.0241,0,0,1,1.01562.56738,1.31129,1.31129,0,0,1,1.13477-.56738,1.15229,1.15229,0,0,1,.91016.33886,1.49132,1.49132,0,0,1,.30664.998v2.42969h-.83106V53.27638a.73948.73948,0,0,0-.15332-.51563.67553.67553,0,0,0-.50976-.16406.69319.69319,0,0,0-.46289.15137.80807.80807,0,0,0-.252.39843l.00391,2.53614h-.83008V53.249a.593.593,0,0,0-.667-.65234.73282.73282,0,0,0-.708.40625v2.67969h-.83008V51.98438Z" transform="translate(-2.77897 -1.50001)" fill="#ec1c24"/><path d="M29.071,51.98438l.02344.38672a1.32911,1.32911,0,0,1,1.06641-.45507,1.0241,1.0241,0,0,1,1.01562.56738A1.31129,1.31129,0,0,1,32.3112,51.916a1.15227,1.15227,0,0,1,.91015.33886,1.49126,1.49126,0,0,1,.30664.998v2.42969h-.83105V53.27638a.73948.73948,0,0,0-.15332-.51563.67556.67556,0,0,0-.50977-.16406.69321.69321,0,0,0-.46289.15137.80813.80813,0,0,0-.252.39843l.00391,2.53614h-.83008V53.249a.593.593,0,0,0-.667-.65234.73282.73282,0,0,0-.708.40625v2.67969h-.83008V51.98438Z" transform="translate(-2.77897 -1.50001)" fill="#ec1c24"/><rect x="39.6377" width="0.5" height="20.25" fill="#d0d2d3"/><rect x="17.7627" y="21.875" width="20.25" height="0.5" fill="#d0d2d3"/><rect x="17.7627" y="79.125" width="20.25" height="0.5" fill="#d0d2d3"/><rect x="199.1377" width="0.5" height="20.25" fill="#d0d2d3"/><rect x="145.1377" y="9.875" width="52.33301" height="0.5" fill="#d0d2d3"/><rect x="41.3877" y="9.875" width="58.25" height="0.5" fill="#d0d2d3"/><polygon points="42.667 11.716 41.034 10.083 42.667 8.451 43.021 8.804 41.741 10.083 43.021 11.362 42.667 11.716" fill="#d0d2d3"/><rect x="27.97119" y="23.7085" width="0.5" height="16.24951" fill="#d0d2d3"/><polygon points="29.542 25.341 28.263 24.062 26.983 25.341 26.63 24.987 28.263 23.355 29.896 24.987 29.542 25.341" fill="#d0d2d3"/><rect x="27.97119" y="61.45801" width="0.5" height="16.25" fill="#d0d2d3"/><polygon points="28.263 78.062 26.63 76.43 26.983 76.076 28.263 77.354 29.542 76.076 29.896 76.43 28.263 78.062" fill="#d0d2d3"/><polygon points="196.608 11.716 196.255 11.362 197.534 10.083 196.255 8.804 196.608 8.451 198.241 10.083 196.608 11.716" fill="#d0d2d3"/></svg>